<svg width="550" height="903" viewBox="0 0 550 903" fill="none" xmlns="http://www.w3.org/2000/svg">
<path d="M253.766 224.952C247.899 231.561 242.14 238 240.972 239.249L240.971 239.248C235.271 245.343 214.743 272.923 205.715 286.752C175.261 333.402 156.134 379.502 146.28 429.771C141.287 455.247 140.185 466.092 139.637 495.556C139.072 525.871 139.934 540.649 143.801 567.425C154.962 644.729 188.17 728.831 242.789 817.246C247.244 824.458 250.871 830.281 253.815 834.943C253.935 824.816 254.033 810.47 254.108 790.848C254.296 742.189 254.359 661.205 254.359 531.925C254.359 433.826 254.268 352.833 254.108 296.368C254.028 268.134 253.931 246.041 253.819 231.011C253.803 228.842 253.782 226.821 253.766 224.952ZM281.946 227.801C281.804 237.184 281.695 251.256 281.61 271.645C281.416 318.673 281.359 399.147 281.359 532.793C281.359 629.173 281.451 709.726 281.61 766.223C281.69 794.473 281.787 816.7 281.898 831.882C281.902 832.344 281.906 832.799 281.909 833.248C302.817 798.842 316.125 774.301 329.979 744.938C363.439 674.019 381.414 612.604 388.566 545.187L388.741 543.397C390.477 524.062 390.139 478.952 388.053 461.244C379.173 385.871 352.784 321.191 303.495 254.454C298.569 247.785 290.441 237.736 281.946 227.801ZM281.359 94.4824C281.359 122.7 281.435 142.014 281.612 154.265C281.631 155.555 281.652 156.763 281.673 157.892C294.367 146.453 312.462 131.018 319.6 125.587C322.996 123.001 330.42 117.286 336.089 112.893H336.09C373.861 83.6188 428.68 48.7923 484.841 18.332H484.842C489.992 15.5387 493.589 13.6608 496.242 12.6367C499.251 11.4754 502.142 10.9756 505.384 12.0518H505.385C516.664 15.7981 518.981 31.6188 507.946 37.6855C458.798 64.7085 436.53 77.7709 408.173 96.1914C378.943 115.179 336.177 146.732 319.37 161.651C318.672 162.271 315.451 165.029 312.259 167.744L312.258 167.745C309.156 170.382 304.222 174.761 301.256 177.507C306.663 177.569 313.25 177.629 320.811 177.68C343.252 177.831 374.217 177.925 408.286 177.925H535.614L537.717 180.598L539.845 183.304C541.957 185.988 543.156 189.296 542.887 192.88C542.623 196.387 541.01 199.438 538.826 201.861C537.483 203.352 535.877 204.071 534.505 204.459C533.292 204.802 531.907 204.985 530.442 205.116C527.439 205.384 522.509 205.553 514.271 205.668C497.678 205.9 466.733 205.925 408.621 205.925C372.295 205.925 341.491 206.017 319.8 206.176C311.879 206.234 305.184 206.3 299.885 206.374C301.005 207.704 302.188 209.103 303.408 210.536L306.218 213.856C334.98 248.065 355.546 279.315 373.673 316.348C394.646 359.193 406.485 397.063 413.217 442.908C418.918 481.734 418.884 527.43 413.167 569.37C399.96 666.251 356.164 771.978 284.655 880.706L282.961 883.274C280.893 886.401 278.578 889.936 276.028 892.138C274.597 893.374 272.574 894.671 269.935 895.03C267.196 895.403 264.776 894.637 262.846 893.529C259.496 891.606 256.453 887.938 253.472 883.912C250.283 879.607 246.32 873.664 241.265 866.048C166.65 753.621 126.567 655.585 114.271 554.226C112.437 539.11 112.035 530.044 112.003 504.934C111.963 473.875 112.84 461.758 117.037 436.287C130.554 354.255 169.714 277.039 233.257 206.35C228.824 206.286 223.439 206.226 217.175 206.176C197.304 206.015 168.696 205.925 133.878 205.925C94.4236 205.925 65.5794 205.842 46.4209 205.668C36.8483 205.581 29.6567 205.47 24.7559 205.335C22.3151 205.267 20.3803 205.192 18.9814 205.105C18.2933 205.063 17.6447 205.013 17.0938 204.948C16.8252 204.917 16.4783 204.87 16.1152 204.798C15.9863 204.772 14.9901 204.597 13.9424 204.036C7.08722 200.367 5.33802 192.097 8.60742 185.774L8.6084 185.773C9.29936 184.438 10.1914 183.181 11.1133 182.149C11.8279 181.35 13.3212 179.807 15.3965 179.011L15.4004 179.01C15.9569 178.797 16.4194 178.703 16.5596 178.675C16.7655 178.634 16.9377 178.608 17.043 178.594C17.2551 178.565 17.4435 178.548 17.5635 178.538C17.8156 178.517 18.0904 178.502 18.3457 178.49C18.8724 178.466 19.5745 178.444 20.4141 178.424C22.1066 178.382 24.5194 178.343 27.5547 178.306C33.6334 178.231 42.3032 178.164 52.915 178.107C74.1437 177.995 103.193 177.925 134.941 177.925C166.674 177.925 195.518 177.868 216.425 177.777C222.931 177.749 228.665 177.716 233.476 177.682C230.768 175.163 227.758 172.393 224.617 169.543C180.467 129.474 122.707 88.7176 56.6406 51.1123C53.0206 49.0524 49.5806 46.9451 46.9326 45.1895C45.6188 44.3183 44.4233 43.4824 43.4727 42.75C43.004 42.389 42.5079 41.987 42.0576 41.5703C41.8047 41.3363 40.854 40.4737 40.1807 39.2158V39.2139C38.8942 36.8092 38.1922 34.0555 38.4736 31.1582C38.757 28.242 39.9924 25.6518 41.8154 23.5439C42.7159 22.5024 44.4618 20.499 47.1943 19.4531C50.1928 18.3056 53.0845 18.733 55.4639 19.4648C57.7688 20.1738 60.4044 21.4263 63.4238 23.0156C66.5193 24.645 70.4232 26.849 75.3604 29.665C142.029 67.6899 203.899 112.249 251.629 156.686H251.63C252.452 157.451 253.262 158.199 254.049 158.924C254.081 156.513 254.112 153.844 254.14 150.943C254.275 136.836 254.359 117.36 254.359 95.9248C254.359 57.6539 254.367 38.0212 254.624 27.7373C254.75 22.7072 254.941 19.4566 255.322 17.2695C255.524 16.1136 255.841 14.8578 256.458 13.6328C257.143 12.2741 257.968 11.4174 258.41 10.9756L258.857 10.5469C261.134 8.45719 264.007 7.17567 267.158 7.0166C270.468 6.84965 273.571 7.94073 276.15 9.74707L278.373 11.3037L281.359 13.3936V94.4824Z" fill="white" stroke="white" stroke-width="14"/>
</svg>
